#!OML:ASF E:\acrobat2\Project_11_07_03\Capture day 1\Session 1\Acrobat.ASF
:FULLY-SPECIFIED
:DEGREES
262
root 11.3208 18.2857 -31.3574 -57.4886 -82.7338 60.6627
lowerback -1.02405 -0.666226 2.45415
upperback -3.44157 -0.925876 -0.43804
thorax -3.00827 -0.556142 -1.80883
lowerneck -0.448965 0.950011 -1.39217
upperneck 1.04018 1.26999 0.758829
head 0.373978 0.633066 0.462211
rclavicle -8.24956e-015 1.19271e-014
rhumerus -12.5215 -31.3772 -9.05107
rradius 19.8523
rwrist 13.1857
rhand -12.6314 -48.1107
rfingers 7.12502
rthumb 13.4485 -77.6565
lclavicle -8.24956e-015 1.19271e-014
lhumerus 2.93004 4.81131 3.23585
lradius 21.5373
lwrist 11.0208
lhand -8.66323 -4.40817
lfingers 7.12502
lthumb 17.2706 24.8444
rfemur 8.01104 13.4431 9.11614
rtibia -1.5854
rfoot -25.8408 -29.6162
rtoes 7.06091
lfemur 3.96268 0.538294 -4.40658
ltibia 2.15708
lfoot -14.0774 3.49837
ltoes 58.1497
263
root 11.3289 18.2994 -31.4131 -56.1084 -82.2878 59.3456
lowerback -1.01786 -0.744703 2.29462
upperback -3.45643 -1.03382 -0.521503
thorax -3.03091 -0.607454 -1.80314
lowerneck -0.586611 0.964806 -1.54721
upperneck 1.04382 1.29164 0.918653
head 0.395937 0.644422 0.5378
rclavicle -1.19271e-015 -3.18055e-015
rhumerus -12.7614 -31.7583 -9.02909
rradius 19.7723
rwrist 13.4228
rhand -12.0865 -48.2707
rfingers 7.12502
rthumb 13.9736 -77.781
lclavicle -1.19271e-015 -3.18055e-015
lhumerus 3.20051 4.8085 3.23998
lradius 21.5465
lwrist 11.0482
lhand -8.68477 -4.37748
lfingers 7.12502
lthumb 17.2499 24.8769
rfemur 8.15957 13.6095 9.09325
rtibia -1.82026
rfoot -26.2352 -30.0165
rtoes 7.58416
lfemur 3.53758 0.601239 -4.07862
ltibia 2.30027
lfoot -12.4309 5.31983
ltoes 56.9562
264
root 11.3375 18.3107 -31.4695 -54.709 -81.9167 57.982
lowerback -0.978032 -0.815441 2.20427
upperback -3.46739 -1.13014 -0.606774
thorax -3.06931 -0.654944 -1.83775
lowerneck -0.618758 0.971712 -1.52195
upperneck 0.99578 1.30256 0.796123
head 0.387185 0.649551 0.496134
rclavicle -9.93923e-016 1.59028e-015
rhumerus -13.025 -31.8343 -9.06801
rradius 19.7088
rwrist 13.1771
rhand -11.9402 -48.2956
rfingers 7.12502
rthumb 14.1147 -77.7962
lclavicle -9.93923e-016 1.59028e-015
lhumerus 3.46529 4.67103 3.1609
lradius 21.556
lwrist 11.1093
lhand -8.80231 -4.37454
lfingers 7.12502
lthumb 17.1367 24.8897
rfemur 8.33718 14.1341 9.24016
rtibia -1.99244
rfoot -27.1782 -30.4486
rtoes 9.40733
lfemur 3.14528 0.736305 -3.5945
ltibia 2.37742
lfoot -10.4775 7.21481
ltoes 56.156
265
root 11.3451 18.3221 -31.52 -53.3199 -81.6669 56.5758
lowerback -0.883496 -0.832566 2.35892
upperback -3.47367 -1.15279 -0.748338
thorax -3.1371 -0.673661 -2.06826
lowerneck -0.636815 0.931063 -1.356
upperneck 0.99497 1.24753 0.739239
head 0.391602 0.622408 0.451241
rclavicle 7.15625e-015 -2.14687e-014
rhumerus -13.477 -31.7988 -9.04515
rradius 19.6826
rwrist 12.7436
rhand -11.9513 -48.1997
rfingers 7.12502
rthumb 14.104 -77.7011
lclavicle 7.15625e-015 -2.14687e-014
lhumerus 3.86534 4.47237 3.00241
lradius 21.6139
lwrist 11.3329
lhand -8.72091 -4.32119
lfingers 7.12502
lthumb 17.2151 24.9363
rfemur 8.55995 14.7441 9.52338
rtibia -2.14093
rfoot -28.097 -30.815
rtoes 11.2854
lfemur 2.79073 1.0941 -2.97021
ltibia 2.53078
lfoot -7.96328 9.18942
ltoes 56.3709
266
root 11.3519 18.3337 -31.568 -51.6936 -81.3424 55.0027
lowerback -0.897617 -0.864466 2.43349
upperback -3.4793 -1.19739 -0.835039
thorax -3.1413 -0.699681 -2.1987
lowerneck -0.712806 0.937441 -1.44284
upperneck 0.97995 1.25713 0.838203
head 0.398558 0.627619 0.496297
rclavicle 2.88238e-015 -2.14687e-014
rhumerus -13.8819 -32.0714 -8.87448
rradius 19.6661
rwrist 12.8108
rhand -11.5066 -48.1613
rfingers 7.12502
rthumb 14.5325 -77.6323
lclavicle 2.88238e-015 -2.14687e-014
lhumerus 4.28652 4.83537 3.06079
lradius 21.6844
lwrist 11.1932
lhand -8.56645 -4.25745
lfingers 7.12502
lthumb 17.3637 24.9869
rfemur 8.66155 14.8288 9.62079
rtibia -2.2789
rfoot -28.4495 -31.0615
rtoes 11.6581
lfemur 2.40067 0.917581 -2.47264
ltibia 2.5778
lfoot -6.07536 10.8238
ltoes 56.525
267
root 11.3595 18.3426 -31.6099 -50.5195 -80.9123 53.9475
lowerback -1.00227 -0.942464 2.32328
upperback -3.46883 -1.30486 -0.829601
thorax -3.07459 -0.74926 -2.13103
lowerneck -0.688981 0.988071 -1.88207
upperneck 0.69388 1.32809 1.04002
head 0.303479 0.663507 0.629603
rclavicle -3.77691e-015 3.10104e-014
rhumerus -14.0076 -32.0264 -8.78366
rradius 19.7743
rwrist 12.5111
rhand -10.7812 -48.6509
rfingers 7.12502
rthumb 15.2313 -78.0702
lclavicle -3.77691e-015 3.10104e-014
lhumerus 4.5043 5.16043 3.18667
lradius 21.7059
lwrist 11.0835
lhand -8.65642 -4.24707
lfingers 7.12502
lthumb 17.2771 25.0049
rfemur 8.67651 14.8523 9.49568
rtibia -2.41128
rfoot -28.924 -31.2027
rtoes 12.5459
lfemur 2.01979 -0.0673108 -2.24341
ltibia 2.37816
lfoot -5.17948 11.9644
ltoes 55.7547
268
root 11.368 18.347 -31.6427 -49.5305 -80.6375 52.9796
lowerback -0.973824 -1.0283 2.4044
upperback -3.43798 -1.41589 -0.782323
thorax -3.06582 -0.805216 -2.12545
lowerneck -1.21597 1.08832 -1.63403
upperneck 1.07365 1.47401 0.385805
head 0.509133 0.732575 0.395447
rclavicle 2.78299e-015 1.90833e-014
rhumerus -13.9697 -32.1435 -8.78471
rradius 19.79
rwrist 12.0806
rhand -10.5353 -48.8596
rfingers 7.12502
rthumb 15.4681 -78.2608
lclavicle 2.78299e-015 1.90833e-014
lhumerus 4.5213 4.93398 3.14796
lradius 21.6709
lwrist 11.2058
lhand -8.89164 -4.2811
lfingers 7.12502
lthumb 17.0507 24.9906
rfemur 8.78741 15.0624 9.54316
rtibia -2.53713
rfoot -29.2529 -31.4172
rtoes 13.2574
lfemur 1.80944 -1.38729 -1.95328
ltibia 2.10035
lfoot -4.87541 12.5072
ltoes 54.8186
269
root 11.3768 18.3496 -31.6762 -48.1989 -80.4768 51.5951
lowerback -0.846367 -1.09796 2.63703
upperback -3.40859 -1.5012 -0.742925
thorax -3.11782 -0.853258 -2.21127
lowerneck -1.50506 1.08839 -1.6336
upperneck 1.41621 1.4842 0.0854573
head 0.663962 0.733119 0.308407
rclavicle -1.17283e-014 -1.43125e-014
rhumerus -14.0384 -32.2826 -8.76753
rradius 19.7016
rwrist 11.4334
rhand -11.1369 -48.5373
rfingers 7.12502
rthumb 14.8886 -77.9822
lclavicle -1.17283e-014 -1.43125e-014
lhumerus 4.61328 5.06996 3.16034
lradius 21.6441
lwrist 10.9919
lhand -8.87523 -4.37347
lfingers 7.12502
lthumb 17.0665 24.8969
rfemur 8.97059 15.3075 9.82567
rtibia -2.65187
rfoot -29.5397 -31.7318
rtoes 13.7554
lfemur 1.65912 -2.33046 -1.4367
ltibia 1.94276
lfoot -5.04714 12.6584
ltoes 54.0486
270
root 11.3831 18.3533 -31.7139 -48.0648 -80.0776 51.4419
lowerback -0.771087 -1.11177 2.49475
upperback -3.39173 -1.52089 -0.82944
thorax -3.14228 -0.860344 -2.21882
lowerneck -1.63814 1.13934 -1.39329
upperneck 1.42632 1.55456 -0.254903
head 0.692517 0.766052 0.167207
rclavicle 1.55052e-014 -1.19271e-014
rhumerus -14.4109 -31.5083 -8.6725
rradius 19.793
rwrist 10.0509
rhand -11.6901 -48.5416
rfingers 7.12502
rthumb 14.3556 -78.0253
lclavicle 1.55052e-014 -1.19271e-014
lhumerus 4.9676 5.54557 3.26782
lradius 21.6373
lwrist 10.667
lhand -8.60583 -4.52485
lfingers 7.12502
lthumb 17.3258 24.7229
rfemur 9.13893 15.3136 9.71065
rtibia -2.84208
rfoot -29.466 -32.1866
rtoes 13.2176
lfemur 1.48997 -2.69489 -1.19669
ltibia 1.84476
lfoot -5.81755 12.6469
ltoes 53.6592
271
root 11.3868 18.3591 -31.7504 -49.2141 -79.4077 52.6075
lowerback -0.749778 -1.13999 1.94979
upperback -3.37025 -1.56833 -0.989438
thorax -3.12311 -0.871012 -2.07677
lowerneck -1.69971 1.17906 -1.32673
upperneck 1.25802 1.60703 -0.328897
head 0.651664 0.792902 0.13393
rclavicle 1.2921e-015 -5.56597e-015
rhumerus -14.7256 -31.321 -8.58885
rradius 19.9174
rwrist 9.43627
rhand -11.8435 -48.7914
rfingers 7.12502
rthumb 14.2078 -78.2855
lclavicle 1.2921e-015 -5.56597e-015
lhumerus 5.23609 5.57628 3.23021
lradius 21.6852
lwrist 10.8191
lhand -8.59887 -4.65752
lfingers 7.12502
lthumb 17.3325 24.5896
rfemur 9.41475 15.7699 9.20344
rtibia -3.06617
rfoot -30.7125 -32.1669
rtoes 16.1586
lfemur 1.33341 -2.62884 -1.39527
ltibia 1.76312
lfoot -7.27269 12.2354
ltoes 54.1612
272
root 11.39 18.3679 -31.7822 -48.819 -79.1278 52.2601
lowerback -0.791899 -1.213 1.89997
upperback -3.34663 -1.66635 -0.979921
thorax -3.07813 -0.917531 -2.03811
lowerneck -1.66383 1.12179 -1.55788
upperneck 1.10986 1.53255 -0.225582
head 0.598252 0.756444 0.201242
rclavicle 1.95803e-014 -1.59028e-014
rhumerus -14.7632 -31.7867 -8.65272
rradius 19.9929
rwrist 9.4547
rhand -11.9 -49.0007
rfingers 7.12502
rthumb 14.1534 -78.4986
lclavicle 1.95803e-014 -1.59028e-014
lhumerus 5.26879 5.41174 3.05869
lradius 21.7514
lwrist 11.0837
lhand -8.85722 -4.73589
lfingers 7.12502
lthumb 17.0839 24.533
rfemur 9.4519 15.572 9.15118
rtibia -3.23373
rfoot -30.1529 -32.7866
rtoes 14.419
lfemur 1.15336 -2.58237 -1.04387
ltibia 1.67843
lfoot -9.41309 11.395
ltoes 54.7504
273
root 11.3969 18.3756 -31.8124 -46.5261 -79.5129 49.9515
lowerback -0.72145 -1.22602 2.60625
upperback -3.33477 -1.6676 -0.764007
thorax -3.12141 -0.93377 -2.21016
lowerneck -1.66619 1.16409 -1.42516
upperneck 0.932585 1.58874 -0.61293
head 0.547617 0.782622 0.0617419
rclavicle 7.15625e-015 -1.11319e-014
rhumerus -14.7912 -31.8854 -8.73052
rradius 20.0773
rwrist 9.1639
rhand -12.0245 -49.064
rfingers 7.12502
rthumb 14.0334 -78.5703
lclavicle 7.15625e-015 -1.11319e-014
lhumerus 5.36301 5.54083 3.01984
lradius 21.7074
lwrist 11.0496
lhand -8.97935 -4.81428
lfingers 7.12502
lthumb 16.9663 24.4647
rfemur 9.56148 16.6118 10.2839
rtibia -3.21941
rfoot -31.9352 -32.8517
rtoes 18.0274
lfemur 1.12732 -2.91639 0.25844
ltibia 1.39019
lfoot -11.3897 10.9155
ltoes 53.274
274
root 11.4063 18.3837 -31.8467 -45.8762 -79.5735 49.2599
lowerback -0.517239 -1.19213 2.80091
upperback -3.35383 -1.61142 -0.68157
thorax -3.25669 -0.911519 -2.23075
lowerneck -1.78018 1.18422 -1.27878
upperneck 0.999487 1.61822 -0.907135
head 0.590529 0.794323 -0.0496957
rclavicle -9.0447e-015 1.59028e-014
rhumerus -14.9855 -32.1846 -8.62309
rradius 20.0824
rwrist 9.18917
rhand -12.1368 -49.0544
rfingers 7.12502
rthumb 13.9251 -78.5681
lclavicle -9.0447e-015 1.59028e-014
lhumerus 5.61189 5.82522 3.11322
lradius 21.6813
lwrist 10.9221
lhand -9.21871 -4.79293
lfingers 7.12502
lthumb 16.7359 24.5057
rfemur 9.57477 16.7799 10.6973
rtibia -3.28528
rfoot -31.5255 -33.5549
rtoes 16.5092
lfemur 1.20424 -3.35217 1.05425
ltibia 0.931928
lfoot -13.6584 11.132
ltoes 51.4388
275
root 11.4083 18.3928 -31.878 -47.6424 -78.9846 51.0502
lowerback -0.449118 -1.16374 2.18229
upperback -3.36063 -1.58531 -0.850099
thorax -3.2865 -0.884228 -2.05671
lowerneck -1.7901 1.15097 -1.29193
upperneck 0.917169 1.5723 -0.800444
head 0.565997 0.773 -0.0160154
rclavicle -3.27995e-015 2.8625e-014
rhumerus -15.3112 -32.348 -8.45462
rradius 20.1109
rwrist 9.06271
rhand -12.1559 -49.0893
rfingers 7.12502
rthumb 13.9067 -78.6043
lclavicle -3.27995e-015 2.8625e-014
lhumerus 5.88566 5.76481 3.06168
lradius 21.7551
lwrist 10.9825
lhand -9.44955 -4.7603
lfingers 7.12502
lthumb 16.5137 24.557
rfemur 9.7492 17.1275 10.0758
rtibia -3.41796
rfoot -32.6559 -33.2562
rtoes 19.3541
lfemur 1.26895 -3.62823 0.802331
ltibia 0.393386
lfoot -17.2778 11.1502
ltoes 53.4257
276
root 11.4031 18.398 -31.8978 -50.968 -77.9399 54.3471
lowerback -0.413819 -1.15525 1.06152
upperback -3.30718 -1.5993 -1.16827
thorax -3.22783 -0.864113 -1.75558
lowerneck -1.69135 1.08963 -1.40959
upperneck 0.661671 1.4872 -0.695193
head 0.469949 0.733062 0.0322973
rclavicle -2.09718e-014 -1.11319e-014
rhumerus -15.619 -32.3498 -8.34477
rradius 20.2287
rwrist 8.72883
rhand -12.2179 -49.0037
rfingers 7.12502
rthumb 13.847 -78.5228
lclavicle -2.09718e-014 -1.11319e-014
lhumerus 6.09963 5.70584 2.9846
lradius 21.8008
lwrist 11.0846
lhand -9.09989 -4.77155
lfingers 7.12502
lthumb 16.8503 24.5174
rfemur 9.90579 16.0711 8.43307
rtibia -3.66232
rfoot -31.0836 -33.2517
rtoes 16.6468
lfemur 1.54171 -4.23505 -0.337626
ltibia -0.275067
lfoot -21.0106 10.9823
ltoes 55.4858
